<svg width="15" height="14" viewBox="0 0 15 14" fill="none" xmlns="http://www.w3.org/2000/svg">
<path d="M9.5 7C9.5 8.10457 8.60457 9 7.5 9C6.39543 9 5.5 8.10457 5.5 7C5.5 5.89543 6.39543 5 7.5 5C8.60457 5 9.5 5.89543 9.5 7Z" stroke="#6C6F85" stroke-width="1.5" stroke-linecap="round" stroke-linejoin="round"/>
<path d="M8.10307 1.04003C7.96588 1 7.81059 1 7.5 1C7.18941 1 7.03412 1 6.89693 1.04003C6.69612 1.09862 6.51874 1.21872 6.38975 1.38341C6.30163 1.49592 6.24396 1.64011 6.12861 1.92848C5.9628 2.34301 5.50262 2.55647 5.07905 2.41533L4.69852 2.28854C4.4286 2.19856 4.29363 2.15357 4.16131 2.14587C3.96693 2.13454 3.77347 2.18021 3.60467 2.27727C3.48977 2.34334 3.38917 2.44394 3.18798 2.64513C2.97414 2.85896 2.86723 2.96588 2.7993 3.08792C2.69951 3.26723 2.6573 3.47289 2.67839 3.67701C2.69275 3.81594 2.7489 3.95633 2.86121 4.2371C3.0371 4.67682 2.86789 5.17919 2.46181 5.42289L2.27681 5.53392C1.99354 5.70388 1.85191 5.78886 1.74903 5.90586C1.65799 6.00939 1.58934 6.13064 1.5474 6.26198C1.5 6.41039 1.5 6.57721 1.5 6.91084C1.5 7.3059 1.5 7.50343 1.56308 7.67251C1.61882 7.82191 1.70948 7.95582 1.82749 8.06306C1.96105 8.18442 2.14263 8.25705 2.50578 8.40231C2.87689 8.55076 3.06797 8.96275 2.94158 9.34194L2.79814 9.77224C2.69879 10.0703 2.64912 10.2193 2.6446 10.3657C2.63917 10.5418 2.68033 10.7161 2.76391 10.8712C2.83343 11.0001 2.94452 11.1112 3.16667 11.3333C3.38882 11.5555 3.4999 11.6666 3.62883 11.7361C3.78387 11.8197 3.95822 11.8608 4.13427 11.8554C4.28068 11.8509 4.42971 11.8012 4.72776 11.7019L5.07908 11.5848C5.50262 11.4436 5.9628 11.657 6.12861 12.0715C6.24396 12.3599 6.30163 12.5041 6.38975 12.6166C6.51874 12.7813 6.69612 12.9014 6.89693 12.96C7.03412 13 7.18941 13 7.5 13C7.81059 13 7.96588 13 8.10307 12.96C8.30388 12.9014 8.48126 12.7813 8.61025 12.6166C8.69837 12.5041 8.75604 12.3599 8.87139 12.0715C9.03719 11.657 9.49738 11.4436 9.92089 11.5848L10.272 11.7019C10.57 11.8013 10.719 11.8509 10.8655 11.8555C11.0415 11.8609 11.2159 11.8197 11.3709 11.7361C11.4998 11.6666 11.6109 11.5555 11.8331 11.3334C12.0552 11.1112 12.1663 11.0002 12.2358 10.8712C12.3194 10.7162 12.3606 10.5418 12.3551 10.3658C12.3506 10.2194 12.3009 10.0703 12.2016 9.77229L12.0582 9.34225C11.9318 8.96292 12.123 8.55078 12.4942 8.40231C12.8574 8.25705 13.0389 8.18442 13.1725 8.06306C13.2905 7.95582 13.3812 7.82191 13.4369 7.67251C13.5 7.50343 13.5 7.3059 13.5 6.91084C13.5 6.57721 13.5 6.41039 13.4526 6.26198C13.4107 6.13064 13.342 6.00939 13.251 5.90586C13.1481 5.78886 13.0065 5.70388 12.7232 5.53392L12.538 5.42277C12.1319 5.17912 11.9626 4.67676 12.1385 4.23705C12.2508 3.95628 12.307 3.81588 12.3213 3.67696C12.3424 3.47284 12.3002 3.26718 12.2004 3.08787C12.1325 2.96583 12.0256 2.85891 11.8117 2.64508C11.6106 2.44389 11.51 2.34329 11.3951 2.27722C11.2263 2.18016 11.0328 2.13449 10.8384 2.14582C10.7061 2.15352 10.5711 2.19851 10.3012 2.28849L9.92092 2.41525C9.49738 2.55643 9.0372 2.343 8.87139 1.92848C8.75604 1.6401 8.69837 1.49592 8.61025 1.38341C8.48126 1.21872 8.30388 1.09862 8.10307 1.04003Z" stroke="#6C6F85" stroke-width="1.5" stroke-linecap="round" stroke-linejoin="round"/>
</svg>
