<svg width="14" height="14" viewBox="0 0 14 14" fill="none" xmlns="http://www.w3.org/2000/svg">
<path d="M2.33333 7V3.8C2.33333 3.05326 2.33333 2.6799 2.47866 2.39468C2.60649 2.1438 2.81046 1.93982 3.06135 1.81199C3.34656 1.66667 3.71993 1.66667 4.46667 1.66667H9.53333C10.2801 1.66667 10.6534 1.66667 10.9387 1.81199C11.1895 1.93982 11.3935 2.1438 11.5213 2.39468C11.6667 2.6799 11.6667 3.05326 11.6667 3.8V7M1 7V10.2C1 10.9467 1 11.3201 1.14532 11.6053C1.27316 11.8562 1.47713 12.0602 1.72801 12.188C2.01323 12.3333 2.3866 12.3333 3.13333 12.3333H10.8667C11.6134 12.3333 11.9868 12.3333 12.272 12.188C12.5229 12.0602 12.7268 11.8562 12.8547 11.6053C13 11.3201 13 10.9467 13 10.2V7H10.5503C10.2242 7 10.0611 7 9.90769 7.03684C9.77164 7.0695 9.64158 7.12338 9.52229 7.19648C9.38773 7.27894 9.27243 7.39424 9.04183 7.62484L8.95817 7.7085C8.72757 7.93909 8.61227 8.0544 8.47771 8.13686C8.35842 8.20996 8.22836 8.26383 8.09231 8.29649C7.93886 8.33334 7.7758 8.33333 7.44968 8.33333H6.55032C6.2242 8.33333 6.06114 8.33334 5.90769 8.29649C5.77164 8.26383 5.64158 8.20996 5.52229 8.13686C5.38773 8.0544 5.27243 7.9391 5.04183 7.7085L4.95817 7.62484C4.72757 7.39424 4.61227 7.27894 4.47771 7.19648C4.35842 7.12338 4.22836 7.0695 4.09231 7.03684C3.93886 7 3.7758 7 3.44968 7H1Z" stroke="#6C6F85" stroke-width="1.5" stroke-linecap="round" stroke-linejoin="round"/>
</svg>
