<svg width="14" height="12" viewBox="0 0 14 12" fill="none" xmlns="http://www.w3.org/2000/svg">
<path d="M1.01919 3.33333L4.65571 5.76333C5.50948 6.33085 5.93636 6.6146 6.39759 6.72487C6.8052 6.82231 7.23004 6.82231 7.63766 6.72487C8.09889 6.6146 8.52577 6.33085 9.37954 5.76333L12.9824 3.36004M4.2 10.6667H9.8C10.9201 10.6667 11.4802 10.6667 11.908 10.4487C12.2843 10.2569 12.5903 9.95097 12.782 9.57465C13 9.14682 13 8.58677 13 7.46667V4.53333C13 3.41323 13 2.85318 12.782 2.42535C12.5903 2.04903 12.2843 1.74307 11.908 1.55132C11.4802 1.33333 10.9201 1.33333 9.8 1.33333H4.2C3.0799 1.33333 2.51984 1.33333 2.09202 1.55132C1.71569 1.74307 1.40973 2.04903 1.21799 2.42535C1 2.85318 1 3.41323 1 4.53333V7.46667C1 8.58677 1 9.14682 1.21799 9.57465C1.40973 9.95097 1.71569 10.2569 2.09202 10.4487C2.51984 10.6667 3.0799 10.6667 4.2 10.6667Z" stroke="#EFA535" stroke-width="1.5" stroke-linecap="round" stroke-linejoin="round"/>
</svg>
