<svg width="14" height="14" viewBox="0 0 14 14" fill="none" xmlns="http://www.w3.org/2000/svg">
<path d="M8.99999 11L10.3333 12.3333L13 9.66667M6.33332 12.3333H3.79999C3.05325 12.3333 2.67988 12.3333 2.39467 12.188C2.14379 12.0602 1.93981 11.8562 1.81198 11.6053C1.66666 11.3201 1.66666 10.9467 1.66666 10.2V3.8C1.66666 3.05326 1.66666 2.6799 1.81198 2.39468C1.93981 2.1438 2.14379 1.93982 2.39467 1.81199C2.67988 1.66667 3.05325 1.66667 3.79999 1.66667H10.2C10.9467 1.66667 11.3201 1.66667 11.6053 1.81199C11.8562 1.93982 12.0602 2.1438 12.188 2.39468C12.3333 2.6799 12.3333 3.05326 12.3333 3.8V7M3.66666 12.3333C3.66666 12.105 3.68961 11.8821 3.73334 11.6667C4.04218 10.1452 5.38735 9 6.99999 9M8.33332 5.66667C8.33332 6.40305 7.73637 7 6.99999 7C6.26361 7 5.66666 6.40305 5.66666 5.66667C5.66666 4.93029 6.26361 4.33333 6.99999 4.33333C7.73637 4.33333 8.33332 4.93029 8.33332 5.66667Z" stroke="#6C6F85" stroke-width="1.5" stroke-linecap="round" stroke-linejoin="round"/>
</svg>
